<svg width="161" height="59" viewBox="0 0 161 59" fill="none" xmlns="http://www.w3.org/2000/svg">
<path d="M80.3024 5.33024C80.6702 5.33024 80.9993 5.43932 81.2926 5.61984C84.2229 6.74442 86.8607 8.4843 89.0584 10.6236C92.6475 14.1779 94.9935 18.8913 95.5057 24.1854C95.5421 24.2937 95.5786 24.4389 95.5786 24.5841C95.5786 25.5274 94.7731 26.3247 93.8201 26.3247C92.8671 26.3247 92.0624 25.5266 92.0624 24.5841C92.0624 24.5119 92.0624 24.4397 92.0981 24.3675C91.6224 19.9798 89.6086 16.0268 86.641 13.0541C84.7359 11.1682 82.3923 9.68262 79.8267 8.70322C79.0949 8.52117 78.5455 7.8329 78.5455 7.03555C78.5455 6.09225 79.3145 5.33024 80.3024 5.33024Z" fill="#6B6B6B"/>
<path d="M79.864 10.6236C79.5706 10.4431 79.2408 10.334 78.9102 10.334C77.958 10.334 77.1517 11.1321 77.1517 12.0747C77.1517 12.9089 77.7749 13.5971 78.5812 13.7784C80.193 14.4675 81.6938 15.4469 82.9394 16.679C85.0284 18.7469 86.4563 21.4662 86.8599 24.5111V24.5833C86.8599 25.5266 87.6289 26.324 88.5819 26.324C89.5706 26.324 90.3396 25.5259 90.3396 24.5833C90.3396 24.4028 90.3031 24.2208 90.2667 24.0395C89.7537 20.2317 87.9595 16.8603 85.3583 14.2854C83.8194 12.7261 81.9142 11.4939 79.864 10.6236Z" fill="#6B6B6B"/>
<path d="M82.6111 0.253492C82.355 0.109078 82.0252 0 81.6946 0C80.7432 0 79.9734 0.797347 79.9734 1.74064C79.9734 2.61097 80.5957 3.3 81.402 3.44442C84.8818 4.67654 87.996 6.63534 90.56 9.17333C94.5527 13.1624 97.1904 18.4926 97.6669 24.4389V24.5833C97.6669 25.5266 98.436 26.324 99.3881 26.324C100.378 26.324 101.147 25.5259 101.147 24.5833C101.147 24.4275 101.119 24.298 101.088 24.1484L101.088 24.147L101.087 24.1446L101.073 24.0756C100.523 17.3312 97.5195 11.2765 92.9773 6.74365C90.0835 3.87919 86.5673 1.6669 82.6111 0.252724V0.253492Z" fill="#6B6B6B"/>
<path d="M73.2304 21.7196H73.1559C72.3876 21.7557 71.4339 22.1183 70.5919 22.8074C69.8221 23.4964 69.237 24.548 69.1997 25.9991C69.1997 26.1074 69.1997 26.1796 69.237 26.3247C69.3472 29.2622 70.8852 31.4729 72.7167 33.4678C72.5209 33.6863 72.2922 33.9047 72.0635 34.1231C71.9503 34.2312 71.8372 34.3392 71.728 34.4472L71.7256 34.4494C71.177 34.9195 70.6275 35.3904 70.0425 35.8245C69.4566 36.2593 68.8707 36.6588 68.2475 37.0206C68.1373 37.0754 68.0323 37.1351 67.9287 37.1941C67.7565 37.2921 67.5878 37.388 67.4047 37.4561C64.8772 34.7361 62.7889 31.4729 62.6058 26.5414C62.5693 26.3601 62.5693 26.1788 62.5693 25.9614V25.9253C62.6422 22.3357 64.1811 19.6525 66.2322 17.875C68.2832 16.0983 70.8472 15.2279 72.8991 15.155H73.4485C76.0862 15.2279 78.7232 16.3518 80.7021 18.3106C82.6437 20.2678 83.9614 23.024 83.8884 26.3593V26.5053C83.7775 32.5238 78.2475 39.7037 72.0198 43.3294C70.8115 44.0546 69.5287 44.6345 68.2095 45.1062C67.1106 45.4688 65.9745 45.7591 64.8764 45.8674H64.6925L64.6188 45.9035H64.1796C63.9964 45.9404 63.7768 45.9404 63.4835 45.9404C60.2606 45.9035 57.4389 44.4179 55.3506 42.1688V42.1327C53.4098 39.9933 52.1278 37.1289 51.9803 34.1553C51.8876 32.4728 51.8983 30.7757 51.9091 29.0732C51.9153 28.0975 51.9215 27.1194 51.9082 26.1419C51.9082 25.3807 51.7615 24.8 51.5411 24.3652C51.3223 23.9657 50.9917 23.6761 50.5897 23.4941C49.9301 23.2045 49.0873 23.0954 48.0986 23.1315C45.4966 23.2037 42.3102 24.1831 39.2705 25.7056L39.0144 25.85C37.0198 26.6539 34.9625 27.6731 32.8716 28.7089L32.3467 28.9687C29.5266 30.3829 26.6693 31.7971 23.8492 32.8848C20.0761 34.299 13.812 35.4589 9.15966 33.5016C8.0965 33.03 7.14508 32.45 6.26506 31.688C5.38582 30.8899 4.65325 29.9481 4.06734 28.8236V28.7875C3.55438 27.8088 3.29752 26.8294 3.18887 25.85C3.00495 23.6746 3.774 21.7527 5.12895 20.1211C6.26506 18.7069 7.80316 17.5831 9.45145 16.7489C11.1005 15.9508 12.8947 15.4438 14.5438 15.2986C14.9101 15.2617 15.3136 15.2617 15.6799 15.2617V15.2256H15.7893C20.0753 15.2256 23.9221 16.9302 26.7057 19.6856C27.255 20.2654 27.8055 20.8464 28.2438 21.4992C28.5015 21.7895 28.7203 22.116 28.9035 22.4786C28.3139 22.8558 24.3806 24.6613 23.0891 25.2541L22.8954 25.343C22.8167 25.2456 22.727 25.1372 22.6381 25.0295C22.5623 24.9378 22.4867 24.8464 22.4189 24.7631C22.2001 24.5457 21.9432 24.2922 21.7236 24.1109C20.3687 22.8773 18.1337 21.6083 15.056 21.8618C14.2497 21.9347 13.2975 22.2251 12.3817 22.6599C11.5405 23.0946 10.7699 23.6032 10.2942 24.2192C9.96441 24.5818 9.81851 24.9812 9.81851 25.3069C9.82274 25.3235 9.82696 25.3405 9.83128 25.3579C9.86498 25.4938 9.9047 25.654 10.0017 25.8147V25.8508C10.1848 26.2502 10.4409 26.5398 10.6978 26.7949C11.0268 27.0845 11.3566 27.2657 11.7594 27.4463C14.543 28.6438 18.7925 27.7366 21.5032 26.7219C24.0672 25.7425 26.7407 24.4374 29.3419 23.0954L29.8988 22.8197C32.1251 21.7169 34.319 20.6302 36.4488 19.7601C40.2591 17.9111 44.3613 16.6421 47.9155 16.5692C49.8556 16.4962 51.6885 16.7865 53.2639 17.4756C55.0953 18.2737 56.5232 19.5796 57.4754 21.4285C58.135 22.6975 58.5006 24.1847 58.5378 25.9606V26.0697L58.5743 33.3941V33.7928C58.6852 35.2431 59.3069 36.6933 60.2598 37.7442H60.2963C61.174 38.7243 62.3101 39.3396 63.5556 39.3757H63.8117C63.8862 39.3396 63.9592 39.3396 64.0329 39.3396H64.2153C64.8012 39.2674 65.4251 39.123 66.0467 38.9049C66.8902 38.6145 67.7322 38.2158 68.6115 37.6727C73.1536 35.0257 77.1827 30.1671 77.2565 26.3585H77.2922V26.2863C77.2922 24.8361 76.7792 23.7122 76.0109 22.951C75.2419 22.189 74.2532 21.7542 73.263 21.7181H73.2273L73.2304 21.7196Z" fill="#6B6B6B"/>
<path d="M91.0691 33.0692C89.6776 33.0692 88.4686 33.9395 87.9929 35.1355C87.0034 36.9491 85.4281 38.2903 83.7441 38.9072C83.4803 39.0239 83.2166 39.0934 82.9901 39.1532C82.9334 39.1681 82.879 39.1824 82.8276 39.1968C82.6374 39.2442 82.4468 39.2608 82.2661 39.2765C82.169 39.285 82.0747 39.2932 81.9848 39.3058C80.9962 39.3058 79.9703 39.0162 78.9808 38.5807C77.4055 40.3213 75.6113 41.916 73.7069 43.1858C76.087 44.7083 79.091 45.9051 82.0586 45.869V45.8329H82.095C82.7539 45.8329 83.45 45.7607 84.1088 45.6155C84.8057 45.5072 85.4646 45.2898 86.0877 45.0716C89.2749 43.8748 92.2417 41.3368 93.9637 38.0368L93.9264 38.0015C94.2198 37.5299 94.4029 36.9852 94.4029 36.3699C94.4029 34.5563 92.9013 33.0692 91.0691 33.0692Z" fill="#6B6B6B"/>
<path d="M31.2157 30.3859V30.3851H31.2172L31.2157 30.3859Z" fill="#6B6B6B"/>
<path d="M24.1856 33.5761C26.6024 32.6345 28.909 31.5463 31.2157 30.3859V30.4581C31.2157 34.6999 29.4952 38.5076 26.7108 41.2638C23.9272 44.0192 20.0812 45.7229 15.7944 45.7229C11.5464 45.7229 7.69879 44.0184 4.91516 41.2638C2.12998 38.5076 0.40952 34.7007 0.40952 30.4581C0.40952 27.1942 1.43466 24.1854 3.19392 21.7196C2.86411 22.4086 2.60802 23.1698 2.49782 23.9319C2.46057 24.2576 2.4241 24.584 2.38918 24.9113C2.38918 25.237 2.38918 25.5634 2.42488 25.8891C2.4986 26.6511 2.64527 27.4116 2.97431 28.2097C3.01078 28.3519 3.08222 28.494 3.15367 28.6362L3.15823 28.6453C3.18683 28.7161 3.20983 28.7814 3.23167 28.8435C3.26551 28.9397 3.29656 29.0279 3.34137 29.1162L3.37784 29.153C3.81708 30.0233 4.36728 30.7846 4.98966 31.4729C5.09417 31.6115 5.23338 31.7502 5.341 31.8574L5.35595 31.8723L5.36305 31.8793C5.5062 32.0202 5.61518 32.1276 5.75871 32.2349C6.34539 32.7426 6.96777 33.2135 7.62662 33.5761C8.06585 34.6999 8.76273 35.7515 9.6055 36.5865C11.2173 38.1819 13.3786 39.1606 15.7959 39.1606C18.214 39.1606 20.4117 38.1819 22.0243 36.5865C22.8656 35.7515 23.526 34.7368 23.9644 33.649L24.0017 33.6122L24.1483 33.5761H24.1856Z" fill="#6B6B6B"/>
<path d="M41.0701 25.7085L41.1073 42.6418H41.0701C41.0701 44.4554 39.6049 45.9418 37.7727 45.9418C35.9405 45.9418 34.4396 44.4554 34.4396 42.6418V28.7911C36.0872 27.9569 37.7355 27.1596 39.3108 26.5428L39.3473 26.5074L39.6041 26.3983C40.0889 26.1588 40.5411 25.9515 40.9908 25.7453L41.0693 25.7093L41.0701 25.7085Z" fill="#6B6B6B"/>
<path d="M34.4404 19.7615V18.4564C34.4404 16.6789 35.942 15.1932 37.7735 15.1932C39.092 15.1932 40.2645 15.9913 40.7775 17.1152C40.5102 17.225 40.2427 17.322 39.967 17.422C39.7897 17.4863 39.6086 17.552 39.4225 17.6229C39.0537 17.7446 38.6848 17.8989 38.3159 18.0532C38.1354 18.1287 37.9548 18.2042 37.7743 18.2758C37.1876 18.5301 36.6389 18.7836 36.126 19.0379V19.074C35.5393 19.2913 34.9906 19.5087 34.442 19.763L34.4404 19.7615Z" fill="#6B6B6B"/>
<path d="M155.668 41.6074H157.953L157.953 41.6081C159.567 41.6081 160.373 42.172 160.373 43.2996C160.373 44.0724 160.088 44.6739 159.519 45.1048C158.949 45.5365 158.159 45.7516 157.147 45.7516H153.249C152.404 45.7516 151.719 45.5296 151.194 45.0864C150.67 44.6424 150.407 44.0593 150.407 43.3373C150.407 42.8441 150.58 42.172 150.926 41.3232L152.731 36.9708C152.833 36.7173 152.884 36.4822 152.884 36.2671C152.884 35.4429 152.462 35.0312 151.617 35.0312C150.964 35.0312 150.317 35.3231 149.677 35.9061C149.037 36.4891 148.525 37.2619 148.141 38.2252L145.99 43.4709C145.286 45.1685 144.262 46.0174 142.918 46.0174C142.393 46.0174 141.945 45.8461 141.574 45.5042C141.202 45.1616 141.016 44.7568 141.016 44.2875C141.016 43.9203 141.113 43.4901 141.305 42.9954L141.516 42.4823L143.686 37.1789C143.878 36.7096 143.974 36.3424 143.974 36.0759C143.974 35.7978 143.846 35.5535 143.59 35.3446C143.334 35.1349 143.033 35.0304 142.687 35.0304C141.305 35.0304 140.21 36.0198 139.404 37.9963L137.157 43.4517C136.931 43.9994 136.67 44.4503 136.38 44.8229C136.259 45.0226 136.114 45.2108 135.921 45.3736C135.606 45.6394 135.227 45.8161 134.797 45.9221L134.751 45.934C134.682 45.9521 134.612 45.9706 134.54 45.9813C134.327 46.0166 134.104 46.0389 133.866 46.0389H126.8C127.462 45.7232 128.081 45.2692 128.66 44.6854C129.49 43.8565 130.157 42.9202 130.667 41.8947H132.925L136.504 33.1684C137.041 31.8633 137.847 31.2104 138.923 31.2104C140.037 31.2104 140.728 31.7304 140.997 32.7697C141.868 32.0346 142.575 31.5468 143.12 31.3064C143.664 31.0652 144.332 30.9446 145.126 30.9446C146.841 30.9446 148.127 31.6859 148.986 33.1684C150.419 31.6859 152.032 30.9446 153.824 30.9446C155.053 30.9446 156.081 31.2964 156.907 31.9993C157.733 32.7029 158.145 33.5671 158.145 34.5941C158.145 35.2401 158.005 35.9053 157.723 36.5898L155.668 41.6074Z" fill="#6B6B6B"/>
<path fill-rule="evenodd" clip-rule="evenodd" d="M118.914 44.2691L113.902 56.472C113.211 58.1573 112.2 59 110.868 59C110.356 59 109.918 58.8318 109.553 58.4969C109.189 58.1604 109.005 57.7587 109.005 57.2893C109.005 56.8976 109.165 56.3007 109.486 55.5026L118.742 32.9211C119.216 31.7811 120.034 31.2104 121.2 31.2104C122.006 31.2104 122.647 31.5906 123.121 32.3511C124.016 31.4132 125.111 30.9438 126.404 30.9438C127.748 30.9438 128.835 31.4477 129.66 32.4556C130.485 33.4634 130.897 34.79 130.897 36.4377C130.897 39.5549 129.918 42.0952 127.96 44.0593C127.32 44.7054 126.661 45.1494 125.982 45.3906C125.303 45.631 124.356 45.7508 123.139 45.7508C121.834 45.7508 120.934 45.6625 120.443 45.4843C119.949 45.3076 119.44 44.902 118.915 44.2683L118.914 44.2691ZM120.489 40.3906C120.809 40.9483 121.114 41.3093 121.401 41.4745C121.69 41.6389 122.146 41.7211 122.773 41.7211C123.683 41.7211 124.393 41.3854 124.905 40.7132C125.942 39.3575 126.461 37.964 126.461 36.5314C126.461 35.3024 125.872 34.6878 124.694 34.6878C123.401 34.6878 122.473 35.4291 121.909 36.9116C121.846 37.076 121.794 37.2158 121.756 37.3295L120.488 40.3891L120.489 40.3906Z" fill="#6B6B6B"/>
<path d="M110.356 41.584H114.104L112.396 45.749H107.465C106.185 45.749 105.14 45.3126 104.326 44.4377C103.512 43.5635 103.106 42.4298 103.106 41.0355C103.106 40.1491 103.324 39.2872 103.759 38.4507C104.195 37.6149 104.963 36.5887 106.064 35.3719H104.067L103.414 36.9689C102.825 38.3885 102.056 39.0975 101.109 39.0975C100.533 39.0975 100.053 38.9262 99.6694 38.5844C99.2853 38.2418 99.0928 37.8177 99.0928 37.3107C99.0928 37.0196 99.2333 36.5257 99.515 35.8282L101.685 30.5249C102.209 29.2451 102.952 28.6052 103.912 28.6052C104.86 28.6052 105.442 29.0485 105.66 29.9357L105.813 30.5249C105.89 30.829 106.005 31.0195 106.159 31.0956C106.312 31.1716 106.69 31.2093 107.292 31.2093H111.785C113.462 31.2093 114.3 31.7923 114.3 32.9584C114.3 34.5677 113.238 35.3727 111.113 35.3727L110.902 35.5632C108.866 37.489 107.848 38.9784 107.848 40.03C107.848 41.0816 108.437 41.6071 109.615 41.6071H110.356V41.584Z" fill="#6B6B6B"/>
</svg>
