<svg width="173" height="74" viewBox="0 0 173 74" fill="none" xmlns="http://www.w3.org/2000/svg">
<path d="M40.7798 13.2697H56.4922V16.1487H50.315V32.3367H46.916V16.1487H40.7654V13.2686H40.7787L40.7798 13.2697ZM55.8215 18.53H58.7261V21.1952H58.7804C58.8768 20.8182 59.0542 20.4546 59.3147 20.1043C59.8718 19.3534 60.6257 18.7714 61.4932 18.4225C61.9337 18.2479 62.4028 18.1566 62.8767 18.1531C63.2315 18.1531 63.4931 18.1664 63.6306 18.1808C63.7669 18.1941 63.9033 18.2207 64.0541 18.234V21.1674C63.8316 21.1285 63.6079 21.0971 63.3833 21.0732C63.1604 21.0468 62.9361 21.0335 62.7115 21.0333C62.1905 21.0333 61.6982 21.1408 61.2326 21.3437C60.767 21.5444 60.369 21.8537 60.0276 22.245C59.6632 22.6826 59.3842 23.1846 59.205 23.725C58.9999 24.317 58.9034 24.9888 58.9034 25.7571V32.3234H55.8082V18.53H55.8215ZM78.2876 32.3378H75.2466V30.4133H75.1912C74.8076 31.1139 74.2467 31.666 73.4928 32.0829C72.7389 32.4997 71.9718 32.7148 71.1913 32.7148C69.3422 32.7148 67.9985 32.2713 67.1781 31.3689C66.3555 30.4676 65.9442 29.1084 65.9442 27.2914V18.5311H69.0406V26.9954C69.0406 28.2071 69.2734 29.0685 69.7534 29.5663C70.2191 30.0641 70.8898 30.3202 71.739 30.3202C72.3964 30.3202 72.9307 30.2259 73.3686 30.0231C73.8076 29.8213 74.1635 29.5663 74.424 29.2293C74.6979 28.9067 74.8897 28.5031 75.0138 28.0453C75.1358 27.5874 75.1912 27.0897 75.1912 26.552V18.5445H78.2876V32.3378ZM83.5612 27.9111C83.6577 28.798 83.9991 29.4189 84.5889 29.7814C85.1909 30.1317 85.9037 30.3202 86.7396 30.3202C87.0279 30.3202 87.356 30.2924 87.7263 30.2525C88.0955 30.2115 88.4513 30.1173 88.7673 29.9976C89.0954 29.8756 89.3549 29.6871 89.5744 29.4455C89.7806 29.2016 89.8759 28.8934 89.8626 28.5031C89.8608 28.322 89.8209 28.1433 89.7455 27.9787C89.67 27.814 89.5607 27.6671 89.4247 27.5475C89.1498 27.2925 88.8083 27.1041 88.3826 26.9422C87.9084 26.7779 87.423 26.6475 86.9303 26.552C86.3827 26.4444 85.835 26.3225 85.2741 26.2017C84.7089 26.0794 84.1508 25.9265 83.6023 25.7438C83.0878 25.5789 82.6025 25.3338 82.1644 25.0177C81.7375 24.7197 81.3894 24.3225 81.15 23.8603C80.8906 23.3891 80.7664 22.8104 80.7664 22.1109C80.7664 21.357 80.9582 20.7384 81.3285 20.2262C81.702 19.7183 82.1841 19.3002 82.7398 19.0023C83.3369 18.6866 83.9788 18.4642 84.6432 18.3427C85.3417 18.2218 86.0135 18.1542 86.6432 18.1542C87.3693 18.1542 88.0678 18.2351 88.7263 18.3837C89.3638 18.5202 89.9715 18.7707 90.52 19.1232C91.0544 19.4602 91.4923 19.9036 91.8492 20.4424C92.2051 20.9801 92.4246 21.6397 92.52 22.4069H89.2872C89.1365 21.6807 88.8072 21.183 88.274 20.9402C87.7396 20.6852 87.1232 20.5632 86.4381 20.5632C86.2186 20.5632 85.9581 20.5765 85.6576 20.6176C85.3681 20.6561 85.0833 20.7237 84.8073 20.8193C84.5551 20.9122 84.3262 21.059 84.1366 21.2495C84.0446 21.3489 83.973 21.4654 83.926 21.5925C83.879 21.7196 83.8575 21.8547 83.8628 21.99C83.8628 22.367 83.9991 22.663 84.2597 22.8913C84.5202 23.1197 84.8628 23.3082 85.2874 23.47C85.712 23.6186 86.192 23.7527 86.7396 23.8603C87.2873 23.9678 87.8483 24.0886 88.4247 24.2106C88.9857 24.3314 89.5334 24.4933 90.0821 24.6673C90.6298 24.8425 91.1087 25.0853 91.5344 25.3946C91.959 25.7039 92.3016 26.0808 92.561 26.5387C92.8215 26.9954 92.959 27.5741 92.959 28.2471C92.959 29.0674 92.7672 29.7548 92.3825 30.3335C92 30.8989 91.5067 31.3689 90.9036 31.7192C90.2723 32.0829 89.5882 32.3462 88.8759 32.4997C88.1514 32.6591 87.4117 32.7401 86.6698 32.7414C85.8389 32.7507 85.0104 32.6512 84.2053 32.4454C83.4515 32.2436 82.7941 31.9476 82.2464 31.5585C81.7052 31.1652 81.2601 30.6542 80.9449 30.0641C80.6301 29.4721 80.4649 28.7581 80.4383 27.9377H83.5612V27.9111ZM93.7805 18.5323H96.123V14.386H99.2193V18.5323H102.013V20.8049H99.2204V28.1805C99.2204 28.502 99.2337 28.7725 99.2615 29.0142C99.2881 29.2437 99.3568 29.4455 99.4532 29.6062C99.558 29.7751 99.7171 29.9033 99.9044 29.9698C100.111 30.0508 100.37 30.0918 100.727 30.0918C100.945 30.0918 101.165 30.0918 101.384 30.0774C101.604 30.0641 101.822 30.0375 102.042 29.9831V32.3378C101.699 32.3789 101.357 32.4055 101.042 32.4454C100.71 32.484 100.376 32.5021 100.042 32.4997C99.2204 32.4997 98.563 32.4188 98.0686 32.2713C97.5764 32.1228 97.1784 31.8944 96.9045 31.5984C96.6163 31.3024 96.4389 30.9388 96.3292 30.4942C96.2224 29.9943 96.1631 29.4854 96.1518 28.9743V20.8304H93.8093V18.5289H93.7816L93.7805 18.5323ZM104.205 18.5323H107.137V20.4014H107.192C107.629 19.5943 108.232 19.0289 109.013 18.6797C109.811 18.325 110.675 18.1458 111.548 18.1542C112.657 18.1542 113.616 18.3427 114.438 18.7329C115.26 19.1098 115.945 19.6353 116.493 20.3072C117.04 20.9801 117.438 21.7605 117.712 22.6497C117.991 23.5745 118.13 24.5361 118.123 25.5021C118.123 26.43 118 27.3313 117.753 28.1938C117.526 29.0258 117.15 29.8097 116.643 30.5075C116.145 31.1803 115.499 31.7286 114.753 32.1095C113.986 32.513 113.096 32.7148 112.055 32.7148C111.6 32.7143 111.146 32.6735 110.698 32.5928C110.251 32.5123 109.815 32.3818 109.398 32.2037C108.983 32.0306 108.595 31.7992 108.246 31.5164C107.901 31.2414 107.601 30.915 107.355 30.5485H107.3V37.4386H104.205V18.53V18.5323ZM115.027 25.4478C115.028 24.8341 114.945 24.2232 114.781 23.6319C114.629 23.0716 114.378 22.5429 114.04 22.071C113.72 21.6219 113.304 21.2494 112.822 20.9801C112.305 20.7006 111.725 20.5571 111.137 20.5632C109.835 20.5632 108.849 21.0067 108.191 21.8958C107.534 22.7838 107.205 23.9689 107.205 25.4478C107.205 26.1473 107.288 26.7937 107.465 27.3857C107.643 27.9777 107.89 28.4898 108.246 28.92C108.589 29.3512 109 29.6871 109.48 29.9288C109.958 30.1849 110.521 30.3057 111.15 30.3057C111.863 30.3057 112.452 30.1583 112.945 29.8756C113.423 29.6008 113.834 29.2242 114.15 28.7725C114.465 28.3147 114.699 27.8025 114.835 27.2249C114.961 26.6409 115.026 26.0453 115.027 25.4478ZM120.493 13.2697H123.589V16.1498H120.493V13.2697ZM120.493 18.5311H123.589V32.3378H120.493V18.5311ZM126.356 13.2697H129.452V32.3378H126.356V13.2697ZM138.945 32.7148C137.821 32.7148 136.821 32.5263 135.946 32.1638C135.106 31.8194 134.346 31.3062 133.713 30.6561C133.097 29.9928 132.626 29.2092 132.328 28.3546C132.002 27.4113 131.84 26.4192 131.849 25.4212C131.849 24.3713 132.013 23.4035 132.328 22.5144C132.626 21.6602 133.097 20.877 133.713 20.214C134.315 19.5677 135.069 19.0699 135.946 18.7063C136.821 18.3427 137.821 18.1542 138.945 18.1542C140.068 18.1542 141.068 18.3427 141.945 18.7063C142.822 19.0699 143.562 19.5821 144.178 20.214C144.794 20.8768 145.265 21.6601 145.562 22.5144C145.876 23.4024 146.041 24.3713 146.041 25.4212C146.041 26.4855 145.876 27.4666 145.562 28.3546C145.265 29.2093 144.794 29.993 144.178 30.6561C143.575 31.3024 142.822 31.8002 141.945 32.1638C141.068 32.5263 140.068 32.7148 138.945 32.7148ZM138.945 30.3057C139.631 30.3057 140.233 30.1583 140.739 29.8756C141.233 29.6007 141.659 29.2189 141.986 28.7581C142.315 28.3014 142.547 27.7759 142.713 27.1972C142.863 26.6185 142.945 26.0265 142.945 25.4212C142.945 24.8292 142.863 24.2505 142.713 23.6585C142.571 23.0969 142.325 22.5673 141.986 22.0976C141.658 21.6411 141.232 21.2642 140.739 20.9945C140.233 20.7118 139.631 20.5632 138.945 20.5632C138.26 20.5632 137.657 20.7118 137.151 20.9945C136.661 21.2683 136.236 21.6446 135.904 22.0976C135.571 22.5701 135.325 23.0988 135.178 23.6585C135.027 24.2339 134.948 24.8261 134.944 25.4212C134.944 26.0265 135.028 26.6185 135.178 27.1972C135.329 27.7759 135.575 28.3014 135.904 28.7581C136.233 29.216 136.644 29.5929 137.151 29.8756C137.657 30.1716 138.26 30.3057 138.945 30.3057ZM146.945 18.5323H149.288V14.386H152.384V18.5323H155.178V20.8049H152.384V28.1805C152.384 28.502 152.397 28.7725 152.424 29.0142C152.452 29.2437 152.52 29.4455 152.617 29.6062C152.721 29.7753 152.881 29.9036 153.068 29.9698C153.274 30.0508 153.534 30.0918 153.891 30.0918C154.109 30.0918 154.329 30.0918 154.548 30.0774C154.768 30.0641 154.986 30.0375 155.205 29.9831V32.3378C154.863 32.3789 154.52 32.4055 154.206 32.4454C153.874 32.4839 153.54 32.5021 153.206 32.4997C152.384 32.4997 151.726 32.4188 151.232 32.2713C150.74 32.1228 150.342 31.8944 150.068 31.5984C149.781 31.3024 149.603 30.9388 149.493 30.4942C149.386 29.9942 149.327 29.4854 149.315 28.9743V20.8304H146.973V18.5289H146.945V18.5323Z" fill="white"/>
<path d="M37.1641 13.269H22.9727L18.5893 0L14.1903 13.2701L0 13.2557L11.493 21.4639L7.09624 34.7185L18.5893 26.5236L30.069 34.7185L25.6855 21.4639L37.1641 13.269Z" fill="#04DA8D"/>
<path d="M26.6714 24.4649L25.6847 21.4639L18.5896 26.5236L26.6714 24.4649Z" fill="#126849"/>
<path d="M31.2818 50.9805H8.33301V73.9293H31.2818V50.9805Z" fill="#00B67A"/>
<path d="M56.1431 50.981H33.1943V73.9297H56.1431V50.981Z" fill="#00B67A"/>
<path d="M81.0045 50.981H58.0557V73.9297H81.0045V50.981Z" fill="#00B67A"/>
<path d="M105.866 50.981H82.9167V73.9297H105.866V50.981Z" fill="#00B67A"/>
<path d="M130.727 50.9814H119.252V73.9302H130.727V50.9814Z" fill="#DCDCE6"/>
<path d="M119.252 50.981H107.778V73.9297H119.252V50.981Z" fill="#00B67A"/>
<path d="M19.8077 66.4474L23.2978 65.563L24.756 70.0571L19.8077 66.4474ZM27.8398 60.6385H21.6962L19.8077 54.8535L17.9192 60.6385H11.7756L16.7479 64.2243L14.8594 70.0093L19.8316 66.4235L22.8915 64.2243L27.8398 60.6385Z" fill="white"/>
<path d="M44.6688 66.4474L48.1589 65.563L49.6171 70.0571L44.6688 66.4474ZM52.7009 60.6385H46.5573L44.6688 54.8535L42.7803 60.6385H36.6367L41.609 64.2243L39.7205 70.0093L44.6927 66.4235L47.7525 64.2243L52.7009 60.6385Z" fill="white"/>
<path d="M69.5299 66.4474L73.02 65.563L74.4782 70.0571L69.5299 66.4474ZM77.562 60.6385H71.4184L69.5299 54.8535L67.6414 60.6385H61.4978L66.47 64.2243L64.5815 70.0093L69.5538 66.4235L72.6136 64.2243L77.562 60.6385Z" fill="white"/>
<path d="M94.3912 66.4474L97.8813 65.563L99.3395 70.0571L94.3912 66.4474ZM102.423 60.6385H96.2797L94.3912 54.8535L92.5027 60.6385H86.3591L91.3314 64.2243L89.4429 70.0093L94.4151 66.4235L97.475 64.2243L102.423 60.6385Z" fill="white"/>
<path d="M119.252 66.4474L122.742 65.563L124.201 70.0571L119.252 66.4474ZM127.284 60.6385H121.141L119.252 54.8535L117.364 60.6385H111.22L116.192 64.2243L114.304 70.0093L119.276 66.4235L122.336 64.2243L127.284 60.6385Z" fill="white"/>
<path d="M142.902 66.1006V64.8563L148.459 56.9985H149.993V65.1461H152.141V66.1006H149.993V69.0835H148.97V66.1006H142.902ZM148.97 65.1461V57.953L143.891 65.1461H148.97ZM153.435 68.2653C153.435 67.771 153.827 67.3619 154.321 67.3619C154.832 67.3619 155.224 67.771 155.224 68.2653C155.224 68.7596 154.832 69.1517 154.321 69.1517C153.827 69.1517 153.435 68.7596 153.435 68.2653ZM164.708 56.9985V58.0723C162.424 60.1859 159.833 63.4586 159.219 69.0835H158.129C158.742 62.9813 161.964 59.5212 163.583 57.9701H156.1V56.9985H164.708Z" fill="white"/>
<rect x="136.195" y="51.3439" width="35.9368" height="22.3954" rx="2.86453" stroke="#8C8C8F" stroke-width="0.520824"/>
</svg>
