<svg width="190" height="70" viewBox="0 0 190 70" fill="none" xmlns="http://www.w3.org/2000/svg">
<path fill-rule="evenodd" clip-rule="evenodd" d="M4.71353 63.1661H6.05956V66.691C6.05956 67.4956 6.02363 68.0642 5.95025 68.3978C5.87764 68.7313 5.74311 69.0117 5.5482 69.24C5.35253 69.4698 5.09188 69.6511 4.76397 69.7864C4.43683 69.9231 4.01032 69.9908 3.48291 69.9908C2.84697 69.9908 2.36466 69.917 2.03599 69.7687C1.70731 69.6219 1.44743 69.429 1.25711 69.1931C1.06602 68.9564 0.940665 68.7082 0.88028 68.4485C0.79238 68.0642 0.748047 67.4963 0.748047 66.7456V63.1668H2.09408V66.8032C2.09408 67.3795 2.11089 67.7538 2.14376 67.9251C2.20109 68.1995 2.33791 68.42 2.55422 68.586C2.77053 68.7528 3.06634 68.835 3.4424 68.835C3.82305 68.835 4.11121 68.7566 4.30459 68.5991C4.49798 68.4416 4.61492 68.2494 4.65467 68.0197C4.69442 67.7907 4.71353 67.4118 4.71353 66.8808V63.1661ZM14.3536 67.6669L11.6118 63.1661H10.3078V69.8732H11.5515V65.4684L14.2519 69.8732H15.5964V63.1661H14.3521V67.6669H14.3536ZM19.8462 69.8732H21.1915V63.1661H19.8462V69.8732ZM28.5874 68.1326L26.8997 63.1661H25.4406L27.8192 69.8732H29.2685L31.6464 63.1661H30.217L28.5874 68.1326ZM37.2415 66.9185H40.5809V65.7842H37.2415V64.2995H40.8278V63.1661H35.8954V69.8732H40.9593V68.7397H37.2415V66.9185ZM50.3823 68.5653L51.1955 69.8732H49.5866L48.6189 68.4131C48.2726 67.8913 48.0365 67.5632 47.9088 67.4264C47.7819 67.2912 47.6474 67.1982 47.5045 67.1475C47.3623 67.0983 47.136 67.0714 46.8272 67.0714H46.5544V69.8732H45.2083V63.1661H48.0403C48.7527 63.1661 49.2694 63.226 49.5919 63.3466C49.9145 63.4673 50.1728 63.6809 50.367 63.9891C50.5611 64.2965 50.6574 64.6492 50.6574 65.0457C50.6574 65.5491 50.5107 65.964 50.2172 66.2929C49.9237 66.6203 49.4849 66.8262 48.9002 66.9115C49.1906 67.0829 49.4306 67.2712 49.6194 67.4748C49.8082 67.68 50.0628 68.0427 50.383 68.5645L50.3823 68.5653ZM48.755 65.9218C48.9155 65.868 49.0416 65.7727 49.1318 65.6382C49.2227 65.503 49.2686 65.337 49.2686 65.1341C49.2686 64.9089 49.2082 64.726 49.089 64.5869C48.9697 64.4479 48.8008 64.3603 48.583 64.3234C48.4744 64.3088 48.1473 64.3011 47.6031 64.3011H46.5544V66.0048H47.5488C48.1924 66.0048 48.596 65.9779 48.7557 65.9225L48.755 65.9218ZM59.8641 66.1769C59.5507 66.0101 59.0669 65.8488 58.4141 65.6935C57.7606 65.5383 57.3486 65.3892 57.1797 65.2448C57.0467 65.1318 56.9802 64.995 56.9802 64.8359C56.9802 64.6623 57.0505 64.5232 57.1934 64.4194C57.4143 64.2573 57.7193 64.1758 58.1091 64.1758C58.4875 64.1758 58.7711 64.2519 58.9599 64.4033C59.1487 64.5547 59.2725 64.8029 59.3298 65.1487L60.6758 65.098C60.6544 64.4786 60.4328 63.9845 60.0101 63.6125C59.5874 63.2421 58.9591 63.0569 58.1229 63.0569C57.6115 63.0569 57.1743 63.1346 56.8128 63.2913C56.4505 63.4465 56.1738 63.6732 55.9812 63.9706C55.7886 64.268 55.693 64.5877 55.693 64.9305C55.693 65.4599 55.8971 65.911 56.306 66.2806C56.5965 66.5434 57.1025 66.7648 57.8217 66.9431C58.382 67.0844 58.7405 67.1813 58.898 67.2374C59.128 67.3196 59.2885 67.4157 59.3818 67.5279C59.4743 67.64 59.5201 67.7745 59.5201 67.9321C59.5201 68.1803 59.4101 68.3962 59.1907 68.5807C58.9713 68.7658 58.6442 68.8581 58.2108 68.8581C57.8011 68.8581 57.4763 68.7543 57.2355 68.5461C56.9947 68.3393 56.8342 68.0143 56.7555 67.5709L55.4461 67.7031C55.534 68.4523 55.8031 69.0225 56.2556 69.4129C56.7065 69.804 57.3547 70 58.197 70C58.7757 70 59.2595 69.9185 59.6478 69.7564C60.0361 69.5919 60.3357 69.343 60.5482 69.0071C60.7599 68.6729 60.8669 68.3132 60.8669 67.9282C60.8669 67.504 60.7783 67.1482 60.6009 66.8593C60.4244 66.5711 60.179 66.3444 59.8656 66.1784L59.8641 66.1769ZM69.1419 63.1668L71.7995 69.874H70.3358L69.7572 68.3532H67.0934L66.5415 69.874H65.1137L67.7079 63.1668H69.1419ZM69.3314 67.2182L68.4058 64.7314L67.5046 67.2182H69.3314ZM77.3946 63.2245H76.0486V69.8732H80.741V68.7397H77.3946V63.2245ZM94.3794 67.7415L93.177 63.1661H91.1599V69.8732H92.4043L92.4081 64.5931L93.7228 69.8732H95.0199L96.343 64.5931L96.3468 69.8732H97.5912V63.1661H95.5748L94.3794 67.7415ZM106.229 66.88C106.229 67.411 106.21 67.7907 106.17 68.0189C106.131 68.2487 106.014 68.4408 105.821 68.5983C105.627 68.7559 105.339 68.8342 104.958 68.8342C104.584 68.8342 104.287 68.752 104.071 68.5853C103.854 68.4185 103.717 68.198 103.66 67.9244C103.627 67.753 103.61 67.3788 103.61 66.8024V63.1661H102.264V66.7448C102.264 67.4956 102.308 68.0635 102.396 68.4477C102.457 68.7074 102.582 68.9557 102.773 69.1923C102.964 69.4283 103.224 69.6211 103.552 69.7679C103.881 69.9162 104.363 69.99 105 69.99C105.527 69.99 105.954 69.9224 106.281 69.7856C106.609 69.6503 106.869 69.469 107.065 69.2392C107.26 69.011 107.394 68.7305 107.466 68.397C107.54 68.0635 107.576 67.4948 107.576 66.6902V63.1653H106.23V66.8793L106.229 66.88ZM116.666 66.1761C116.352 66.0094 115.869 65.848 115.216 65.6928C114.563 65.5375 114.15 65.3885 113.981 65.244C113.848 65.131 113.781 64.9942 113.781 64.8352C113.781 64.6615 113.853 64.5224 113.995 64.4187C114.215 64.2565 114.521 64.1751 114.911 64.1751C115.289 64.1751 115.572 64.2511 115.761 64.4025C115.949 64.5539 116.073 64.8021 116.131 65.1479L117.477 65.0972C117.456 64.4778 117.234 63.9837 116.811 63.6118C116.389 63.2414 115.759 63.0562 114.924 63.0562C114.412 63.0562 113.975 63.1338 113.613 63.2906C113.25 63.4458 112.974 63.6725 112.781 63.9699C112.589 64.2673 112.493 64.5869 112.493 64.9297C112.493 65.4592 112.697 65.9102 113.106 66.2799C113.397 66.5427 113.901 66.764 114.622 66.9423C115.181 67.0837 115.54 67.1805 115.698 67.2366C115.928 67.3188 116.089 67.4149 116.181 67.5271C116.273 67.6393 116.319 67.7738 116.319 67.9313C116.319 68.1795 116.209 68.3954 115.991 68.5799C115.77 68.7651 115.443 68.8573 115.01 68.8573C114.601 68.8573 114.276 68.7535 114.034 68.5453C113.794 68.3386 113.633 68.0135 113.555 67.5701L112.246 67.7023C112.333 68.4515 112.602 69.0217 113.055 69.4121C113.507 69.8033 114.154 69.9992 114.997 69.9992C115.576 69.9992 116.059 69.9178 116.448 69.7556C116.835 69.5912 117.136 69.3422 117.349 69.0064C117.561 68.6721 117.666 68.3124 117.666 67.9275C117.666 67.5033 117.578 67.1475 117.401 66.8585C117.224 66.5704 116.979 66.3437 116.666 66.1777V66.1761ZM122.338 69.8732H123.685V63.1661H122.338V69.8732ZM132.299 68.4907C132.042 68.7205 131.736 68.8342 131.378 68.8342C130.894 68.8342 130.502 68.6544 130.199 68.2955C129.897 67.9351 129.746 67.3304 129.746 66.4827C129.746 65.6835 129.899 65.1049 130.205 64.7476C130.512 64.3902 130.911 64.2119 131.402 64.2119C131.759 64.2119 132.061 64.3118 132.311 64.5147C132.56 64.716 132.723 64.9904 132.802 65.3385L134.133 65.0158C133.982 64.4801 133.754 64.069 133.452 63.7831C132.944 63.299 132.284 63.0562 131.469 63.0562C130.537 63.0562 129.787 63.3651 129.213 63.9822C128.642 64.6 128.357 65.4676 128.357 66.5826C128.357 67.6377 128.641 68.4692 129.21 69.0771C129.779 69.6865 130.504 69.99 131.389 69.99C132.104 69.99 132.693 69.8117 133.158 69.4559C133.622 69.0986 133.955 68.553 134.156 67.8183L132.853 67.4087C132.742 67.9013 132.557 68.261 132.3 68.4907H132.299ZM146.424 67.4164H147.968V68.2648C147.764 68.4231 147.521 68.5584 147.238 68.6683C146.956 68.7804 146.673 68.835 146.391 68.835C145.821 68.835 145.361 68.636 145.01 68.2379C144.658 67.8406 144.483 67.2428 144.483 66.4459C144.483 65.7089 144.657 65.151 145.003 64.776C145.35 64.4002 145.817 64.2127 146.404 64.2127C146.792 64.2127 147.115 64.3088 147.373 64.4993C147.633 64.6892 147.809 64.9504 147.903 65.2809L149.242 65.0319C149.107 64.4148 148.809 63.9322 148.343 63.5818C147.879 63.2321 147.232 63.0569 146.404 63.0569C145.768 63.0569 145.235 63.1684 144.808 63.3904C144.247 63.6809 143.821 64.0974 143.53 64.6392C143.239 65.1825 143.094 65.8034 143.094 66.5012C143.094 67.1452 143.224 67.7392 143.485 68.2871C143.746 68.8342 144.135 69.2561 144.654 69.5497C145.172 69.844 145.781 69.9908 146.477 69.9908C147.027 69.9908 147.569 69.887 148.103 69.6788C148.639 69.4705 149.046 69.2285 149.329 68.9541V66.2822H146.426V67.4172L146.424 67.4164ZM158.89 68.5653L159.702 69.8732H158.093L157.127 68.4131C156.781 67.8913 156.543 67.5632 156.416 67.4264C156.289 67.2912 156.155 67.1982 156.012 67.1475C155.87 67.0983 155.643 67.0714 155.334 67.0714H155.061V69.8732H153.716V63.1661H156.546C157.258 63.1661 157.776 63.226 158.098 63.3466C158.421 63.4673 158.681 63.6809 158.873 63.9891C159.068 64.2965 159.165 64.6492 159.165 65.0457C159.165 65.5491 159.017 65.964 158.724 66.2929C158.43 66.6203 157.991 66.8262 157.407 66.9115C157.697 67.0829 157.936 67.2712 158.125 67.4748C158.315 67.68 158.568 68.0427 158.889 68.5645L158.89 68.5653ZM157.263 65.9218C157.423 65.868 157.548 65.7727 157.639 65.6382C157.73 65.503 157.775 65.337 157.775 65.1341C157.775 64.9089 157.715 64.726 157.596 64.5869C157.477 64.4479 157.308 64.3603 157.09 64.3234C156.981 64.3088 156.656 64.3011 156.11 64.3011H155.062V66.0048H156.056C156.7 66.0048 157.102 65.9779 157.264 65.9225L157.263 65.9218ZM169.675 63.9768C170.265 64.5892 170.559 65.4415 170.559 66.5327C170.559 67.6155 170.266 68.4631 169.682 69.074C169.097 69.6865 168.315 69.9908 167.336 69.9908C166.343 69.9908 165.555 69.688 164.969 69.0778C164.384 68.47 164.092 67.6324 164.092 66.5642C164.092 65.8818 164.193 65.3085 164.396 64.8444C164.548 64.5032 164.754 64.1973 165.018 63.9253C165.279 63.654 165.568 63.4527 165.88 63.3205C166.295 63.1445 166.774 63.0554 167.316 63.0554C168.299 63.0554 169.086 63.3613 169.675 63.9753V63.9768ZM169.17 66.5012C169.17 65.7327 169.003 65.1595 168.667 64.7806C168.332 64.4017 167.887 64.2127 167.333 64.2127C166.778 64.2127 166.33 64.4048 165.99 64.7868C165.651 65.1702 165.481 65.7473 165.481 66.5189C165.481 67.2789 165.656 67.8544 166.005 68.2471C166.353 68.6398 166.795 68.835 167.333 68.835C167.87 68.835 168.31 68.6406 168.654 68.2517C168.998 67.8621 169.17 67.2789 169.17 66.5012ZM178.913 66.8808C178.913 67.4118 178.893 67.7914 178.853 68.0197C178.814 68.2494 178.698 68.4416 178.505 68.5991C178.311 68.7566 178.023 68.835 177.642 68.835C177.268 68.835 176.97 68.7528 176.754 68.586C176.538 68.4193 176.402 68.1987 176.344 67.9251C176.309 67.7538 176.293 67.3795 176.293 66.8032V63.1668H174.948V66.7456C174.948 67.4963 174.993 68.0642 175.079 68.4485C175.14 68.7082 175.266 68.9564 175.457 69.1931C175.646 69.429 175.908 69.6219 176.234 69.7687C176.563 69.917 177.046 69.9908 177.683 69.9908C178.209 69.9908 178.637 69.9231 178.964 69.7864C179.292 69.6511 179.552 69.4698 179.747 69.24C179.943 69.0117 180.077 68.7313 180.148 68.3978C180.222 68.0642 180.258 67.4956 180.258 66.691V63.1661H178.913V66.8808ZM189.747 65.2302C189.747 65.6413 189.672 65.9879 189.525 66.2683C189.377 66.5496 189.188 66.7694 188.959 66.9292C188.731 67.0898 188.498 67.1959 188.262 67.2474C187.943 67.3119 187.477 67.3434 186.869 67.3434H185.994V69.874H184.648V63.1668H186.805C187.622 63.1668 188.155 63.2006 188.403 63.2667C188.785 63.3674 189.104 63.5872 189.362 63.923C189.618 64.2604 189.748 64.6961 189.748 65.2294L189.747 65.2302ZM188.357 65.2509C188.357 65.0065 188.286 64.8037 188.144 64.6446C188.003 64.4855 187.823 64.3864 187.606 64.3456C187.446 64.3149 187.123 64.2995 186.641 64.2995H185.993V66.2084H186.727C187.255 66.2084 187.608 66.1738 187.787 66.1039C187.964 66.0332 188.105 65.9225 188.206 65.7719C188.307 65.6221 188.357 65.4476 188.357 65.2494V65.2509ZM97.9802 17.6393L98.036 17.6109L98.1476 17.5824L98.2883 17.5263L98.4282 17.4979L98.5397 17.4141V17.358C97.7792 17.2489 97.7769 17.4564 97.1708 16.8801C96.5838 16.502 96.6434 16.9823 96.1649 16.6272C95.6795 16.0309 95.9914 16.253 95.383 16.15C95.1468 16.1623 94.8303 16.0294 94.6561 16.2622L94.6003 16.346V16.4021H94.6836L94.7959 16.3736H95.1307L95.3256 16.4582L95.5488 16.5704L95.8286 16.7948L96.0243 16.9362L96.1924 16.9915L96.304 17.0199H96.4439L96.5555 17.0476L96.6671 17.1044L96.9743 17.4134L97.0026 17.4971V17.5817C97.3122 17.4487 97.6959 17.4495 97.9802 17.6378V17.6393ZM112.172 33.508L112.2 33.4519H97.5889L99.2093 34.8851L99.3492 34.9404L99.4891 35.0526L99.629 35.1364L99.7688 35.2494C100.14 35.5806 100.287 36.0678 100.384 36.5412L100.356 36.7094L100.273 36.794L100.189 36.9338L100.077 37.159L100.021 37.5525L99.9653 38.1703C99.9744 38.6183 100.026 39.4436 99.5456 39.7149L99.4906 39.658H99.4623C99.4409 40.8953 98.993 42.101 98.2898 43.113C97.874 43.5065 97.8106 43.9706 98.1216 44.4325C97.8602 44.5969 97.4949 46.0839 97.5346 46.3152L97.5904 46.5112L97.6737 46.7356L97.8136 46.9046L97.9818 47.0453L98.205 47.1859L98.4006 47.2143L98.5963 47.1859L98.6796 47.1306L98.6521 47.0737L98.5405 46.9899L98.4572 46.9062L98.4014 46.7932L98.4855 46.6526L98.7087 46.4843L99.1558 46.2591L99.4073 46.0347L99.4623 45.7819L99.3507 45.586L99.2667 45.5299H99.3232L99.4065 45.473L99.6297 45.4177L99.8262 45.3055L100.077 45.1087L100.328 44.8283L100.58 44.4348L100.831 43.9292L101.138 43.9576L101.39 43.9015L101.557 43.817L101.752 43.6763L102.004 43.508L102.339 43.339L102.814 43.1983L103.484 43.0016L103.681 42.9455L103.819 42.8894L103.959 42.8049L104.042 42.748L104.071 42.6358L104.099 42.5513C103.983 41.7851 104.259 42.0618 105.02 41.6245C106.461 40.6739 107.197 39.9339 108.065 38.4785L108.177 38.2256L108.344 38.0012L108.569 37.8053L108.904 37.6086L109.295 37.4118L109.603 37.2996H110.021L110.189 37.3557H110.301L110.442 37.272L110.581 37.1306L110.861 36.7371L111.084 36.4282C111.368 35.8565 111.347 35.4346 111.81 34.8844L111.894 34.7998L111.977 34.6876L112.061 34.6031L112.117 34.4625L112.2 34.3503V34.2096L112.172 34.1251L112.089 33.9007L112.117 33.6756L112.172 33.5065V33.508ZM101.919 18.5376L101.947 18.4254L101.836 18.3701H101.752L101.669 18.3132H101.556L101.612 18.6222H101.836L101.919 18.5384V18.5376ZM98.8455 17.6109V18.032L98.818 18.1718L98.7064 18.3125C98.9365 18.3148 99.1199 18.2548 99.2093 18.5369C99.6718 18.2379 100.251 18.2748 100.774 18.1711C100.224 18.0297 99.6305 17.2735 98.8463 17.6101L98.8455 17.6109ZM69.4277 34.9128C77.5528 59.9885 110.687 59.3591 118.877 34.6884C110.409 57.0829 78.0871 57.2151 69.4277 34.9128ZM85.7238 3.1338C85.5862 3.39201 85.4914 3.59565 85.4914 3.59565C85.3516 3.8477 85.2736 4.16892 85.045 4.35412C84.4359 4.63 84.1614 5.61593 83.8718 6.17999L83.7602 6.40515V6.51734L83.7877 6.54501V6.79783C83.5293 7.61624 82.6725 8.24715 82.2788 9.01715L82.0549 9.49513L81.915 9.91625L81.8026 10.3374L81.6911 10.6463L81.6635 10.8714L81.6352 10.9275C82.1481 11.915 82.2819 13.0623 82.1107 14.1582V14.1858L82.1382 14.2143L82.2223 14.2704L82.3339 14.3833L82.4745 14.6077L82.5861 14.8329L82.6702 15.1134L82.781 15.3938L82.8926 15.7028L82.9767 15.984L83.0891 16.1247L83.1449 16.1531C83.751 15.2248 82.5563 13.6725 82.7818 12.5859H82.8376L82.9775 12.4737L83.0898 12.4453C83.1999 14.0721 84.072 15.5206 84.8776 16.8831L84.7943 16.9953L84.6269 17.2481V17.501L84.9342 17.5855L84.7385 18.0351H84.9342L85.0458 18.0627H85.1857L85.3256 18.1196L85.493 18.1749L85.6053 18.2879L85.7452 18.3724L85.9692 18.5968L86.3039 18.8496L86.4438 18.8773L86.5554 18.9057H91.724C91.8914 18.2333 92.0511 17.521 92.4501 16.94H92.4226L92.3118 16.8831H91.8088L91.669 16.8555L91.5291 16.7709L91.4458 16.6872H91.3334C91.0942 16.817 90.8541 17.5832 90.6913 17.7546C90.5186 18.3178 89.4309 18.2956 88.9593 18.344C88.5366 18.4446 88.6345 18.3063 88.3448 18.0074C88.1934 17.7315 88.0421 17.4541 87.8693 17.1928C87.0133 15.337 88.8424 12.4875 91.0261 13.485C92.1788 12.5697 92.4914 13.538 93.4851 13.0915L93.9039 13.007L94.1829 13.0915L94.3503 13.3444L94.4619 13.7094L94.5735 14.1589L94.7409 14.58L94.9924 14.9451L95.3837 15.1979L95.5228 14.6646L95.4388 14.1866L95.2996 13.7094L94.9633 12.9232L94.88 12.5582L94.9633 12.2493L95.2706 11.9688C95.7774 11.6906 96.7924 11.112 97.0034 10.5364L97.1708 10.199L97.3107 9.86246L97.5339 9.35681L97.6454 9.16008L97.7578 8.99179L97.8686 8.87959L97.981 8.82273L98.2317 8.68287L98.4282 8.51457L98.5397 8.34551L98.6238 8.14879L98.6513 7.98049V7.8683L98.6238 7.7561V7.72767H98.6789L98.7905 7.7561L98.9303 7.78454H99.1543L99.4058 7.7561L99.6565 7.67157L99.9637 7.55938L100.216 7.33498L100.02 7.25045L99.7681 7.13826L99.5724 7.02606L99.405 6.88543L99.2368 6.77324L99.097 6.60495V6.23916L99.2644 6.07086H99.5166L99.8797 6.0993L100.271 6.21149L100.662 6.29526H101.054L101.389 6.1554L101.64 5.84647C100.509 5.3877 99.895 4.63 98.9021 4.16124L98.7339 4.3303L98.594 4.41406H98.2875L98.1194 4.35796L97.9795 4.27343L97.7838 4.1328L97.5881 3.96451C96.7634 3.24523 96.476 3.94991 95.9394 3.40353L95.8278 3.71169V4.1328L95.9394 4.27343L96.0235 4.35796L96.1916 4.41406L96.3032 4.47016L96.4148 4.55469L96.5547 4.72298V4.77908L96.4989 4.75065L96.3308 4.72221L96.1634 4.75065L95.996 4.89127L95.9119 5.1441V5.67818L95.8836 5.84647L95.8278 5.931L95.6879 6.01477L95.5481 5.9871L95.3807 5.931C94.6316 5.4438 95.1659 5.28473 94.3465 4.97581C93.7686 4.66304 92.668 4.86899 92.1956 4.35796L92.2789 4.21733L92.3905 4.04904L92.5862 3.90841L92.7819 3.71169L93.0608 3.54339L93.3681 3.319L93.7044 3.09384L94.095 2.92555C95.3875 2.23393 97.102 2.08331 98.5367 2.27927C98.5367 2.27927 98.422 2.22471 98.2394 2.13864C107.073 3.4604 115.291 9.04328 118.931 18.8788C115.434 7.67234 105.939 0.00308796 94.0965 1.41075e-05C81.7377 -0.0115128 73.1616 7.04143 69.3719 18.6222C72.4737 10.5272 78.6726 5.37925 85.7238 3.1338ZM48.81 21.9642L49.4245 21.2057H45.3459L45.9605 21.9642V27.7507L45.8206 28.1157L45.6532 28.397C45.2855 28.888 44.5495 29.0433 43.9762 29.0433L43.5573 29.0148L43.1935 28.9311L42.8304 28.8189L42.5514 28.6222L42.3282 28.3978L42.1609 28.1165L42.0202 27.7515V21.965L42.6348 21.2065H38.5562L39.1707 21.965C39.5498 27.3042 37.4509 31.0597 43.9754 31.1212C50.5741 31.0559 48.3881 27.388 48.8085 21.965L48.81 21.9642ZM60.7393 21.9642V26.8793L55.8222 21.2057H52.7487L53.364 21.9642V30.2221L52.7487 30.9245H56.157L55.5707 30.2221V25.2509L60.7943 30.9245H62.946V21.9642L63.5605 21.2057H60.1523L60.7393 21.9642ZM67.3884 30.9245H71.467L70.8808 30.2221V21.9642L71.467 21.2057H67.3884L68.003 21.9642V30.2221L67.3884 30.9245ZM73.926 21.2057L78.4242 30.9245H80.4352L85.0175 21.2057H81.5527L82.1672 21.9642L79.7358 27.3288L77.3893 21.9642L78.0046 21.2057H73.926ZM95.7728 23.256L96.5272 23.8738V21.2057H87.4199L88.0344 21.9642V30.2221L87.4199 30.9245H96.5272V28.3117L95.7728 28.9019H90.8564V27.0476H93.9567L94.6836 27.6662V24.5201L93.9567 25.1379H90.8564V23.256H95.7728ZM100.159 21.2057H106.194L107.143 21.2903L107.925 21.4586L108.57 21.7398L109.099 22.0764L109.463 22.5259L109.714 23.0316L109.882 23.5649L109.91 24.1827C109.923 25.6497 109.032 26.5896 107.73 27.1037L110.357 30.9237H106.054L106.67 30.2213L104.825 27.4971H103.596V30.2213L104.211 30.9237H100.159L100.775 30.2213V21.9634L100.159 21.205L100.159 21.2057ZM103.595 25.672C104.591 25.7174 106.914 26.0032 107.032 24.3802C107.011 23.9445 106.874 23.601 106.474 23.3966L106.249 23.3405L106.026 23.2568H103.595V25.672ZM118.681 24.8575C118.081 24.8037 115.933 24.0383 117.144 23.2568C118.227 22.6673 121.104 23.6602 122.118 24.1835V20.8968L121.335 21.6553C119.352 20.8645 116.603 20.5579 114.771 21.852C114.21 22.3215 113.762 23.0016 113.82 23.7624C113.705 25.6136 115.377 26.502 116.865 27.0199L117.368 27.189L117.871 27.3012L118.317 27.4134L118.737 27.5548L119.044 27.667L119.295 27.8629L119.491 28.0596L119.547 28.3686C119.536 28.9226 118.783 29.1117 118.346 29.0986C116.765 29.0133 115.183 28.5223 113.848 27.6662V31.2611L114.629 30.4181C117.121 31.3771 122.524 32.1079 122.619 28.115C122.58 25.9725 120.345 25.36 118.681 24.8575H118.681ZM132.287 21.2057L137.036 30.9245H132.957L133.572 30.2221L133.097 29.1831H128.516L128.013 30.2221L128.627 30.9245H125.08L129.354 21.9642L129.018 21.2057H132.287ZM132.398 27.4418L130.778 23.9591L129.185 27.4418H132.398ZM139.661 30.9245H148.49V28.3117L147.764 28.9019H143.099V21.9642L143.714 21.2057H139.662L140.277 21.9642V30.2221L139.662 30.9245H139.661ZM146.674 23.0877L146.897 23.2568L147.149 23.3128L147.289 23.2568H147.4L147.541 23.1999L147.624 23.1161V22.9478L147.541 23.0316L147.4 23.1154L147.289 23.1438L147.149 23.1715L146.926 23.1154L146.758 23.0032L146.589 22.6097C146.729 21.9857 147.212 21.8443 147.624 22.2447V22.0756L147.541 21.9919L147.4 21.9358L147.289 21.9081H147.149L146.897 21.9358L146.674 22.0764L146.534 22.3292L146.478 22.6097L146.534 22.8902L146.674 23.0869V23.0877ZM145.78 22.582C145.783 20.8853 148.367 20.7539 148.463 22.582C148.383 24.4479 145.765 24.3126 145.78 22.582ZM145.892 22.582C145.95 24.2043 148.298 24.2089 148.323 22.582C148.283 20.9952 145.968 20.9967 145.892 22.582Z" fill="#6B6B6B"/>
</svg>
