<svg width="72" height="67" viewBox="0 0 72 67" fill="none" xmlns="http://www.w3.org/2000/svg">
<path fill-rule="evenodd" clip-rule="evenodd" d="M67.8688 12.9074C62.4585 3.84214 53.4097 0 36 0C18.6888 0 9.54057 3.84214 4.22972 12.9074C1.1806 18.1296 0 27.7852 0 33.6974C0 39.7074 1.1806 48.8714 4.22972 54.0926C9.5415 63.1569 18.7874 67 36 67C53.4097 67 62.4585 63.1579 67.8688 54.0926C70.9179 48.8704 72 39.7074 72 33.6974C72 27.7861 70.9179 18.1296 67.8688 12.9074ZM27.5406 52.4174C25.5735 52.4174 22.7205 51.4322 21.4423 48.3778L12.7868 27.3913C11.0159 22.6617 14.5567 18.2283 18.7864 18.2283C20.7535 18.2283 23.6065 19.1148 24.9832 22.2678L33.6388 43.2543C35.4088 47.3926 32.4582 52.4174 27.5406 52.4174ZM44.9503 52.4174C42.9832 52.4174 40.1302 51.4322 38.852 48.3778L30.1965 27.3913C28.3279 22.6617 31.9674 18.2283 36.1971 18.2283C38.1641 18.2283 41.0171 19.1148 42.3938 22.2678L50.9509 43.2543C52.7218 47.3926 49.8679 52.4174 44.9503 52.4174ZM55.4744 36.5543C53.5073 36.5543 50.6543 35.5691 49.2776 32.5148L47.4091 27.3913C45.5406 22.6617 49.0814 18.2283 53.3102 18.2283C55.3758 18.2283 58.2288 19.1148 59.507 22.2678L61.474 26.9974C63.2449 31.037 60.2934 36.5543 55.4744 36.5543Z" fill="#6B6B6B"/>
</svg>
